<svg width="21" height="21" viewBox="0 0 21 21" fill="none" xmlns="http://www.w3.org/2000/svg">
<path d="M10.5718 2.52344C8.96481 2.52344 7.39392 2.99996 6.05777 3.89275C4.72162 4.78553 3.68022 6.05448 3.06526 7.53913C2.4503 9.02378 2.2894 10.6575 2.6029 12.2335C2.91641 13.8096 3.69024 15.2574 4.82654 16.3937C5.96284 17.53 7.41058 18.3038 8.98667 18.6173C10.5628 18.9308 12.1964 18.7699 13.6811 18.155C15.1657 17.54 16.4347 16.4986 17.3275 15.1624C18.2203 13.8263 18.6968 12.2554 18.6968 10.6484C18.6945 8.49425 17.8378 6.42895 16.3145 4.90571C14.7913 3.38247 12.726 2.52571 10.5718 2.52344ZM10.5718 17.5234C9.21203 17.5234 7.88282 17.1202 6.75224 16.3648C5.62165 15.6094 4.74046 14.5356 4.22011 13.2794C3.69976 12.0231 3.56361 10.6408 3.82888 9.30719C4.09416 7.97357 4.74894 6.74856 5.71042 5.78708C6.67191 4.82559 7.89692 4.17081 9.23054 3.90554C10.5642 3.64027 11.9465 3.77641 13.2027 4.29677C14.459 4.81712 15.5327 5.6983 16.2881 6.82889C17.0436 7.95948 17.4468 9.28869 17.4468 10.6484C17.4447 12.4712 16.7197 14.2186 15.4309 15.5075C14.142 16.7964 12.3945 17.5214 10.5718 17.5234ZM9.94678 11.2734V6.89844C9.94678 6.73268 10.0126 6.57371 10.1298 6.4565C10.247 6.33929 10.406 6.27344 10.5718 6.27344C10.7375 6.27344 10.8965 6.33929 11.0137 6.4565C11.1309 6.57371 11.1968 6.73268 11.1968 6.89844V11.2734C11.1968 11.4392 11.1309 11.5982 11.0137 11.7154C10.8965 11.8326 10.7375 11.8984 10.5718 11.8984C10.406 11.8984 10.247 11.8326 10.1298 11.7154C10.0126 11.5982 9.94678 11.4392 9.94678 11.2734ZM11.5093 14.0859C11.5093 14.2714 11.4543 14.4526 11.3513 14.6068C11.2483 14.761 11.1019 14.8811 10.9305 14.9521C10.7592 15.023 10.5707 15.0416 10.3889 15.0054C10.207 14.9692 10.04 14.88 9.90887 14.7488C9.77776 14.6177 9.68847 14.4507 9.65229 14.2688C9.61612 14.087 9.63469 13.8985 9.70564 13.7272C9.7766 13.5559 9.89676 13.4094 10.0509 13.3064C10.2051 13.2034 10.3864 13.1484 10.5718 13.1484C10.8204 13.1484 11.0589 13.2472 11.2347 13.423C11.4105 13.5988 11.5093 13.8373 11.5093 14.0859Z" fill="white"/>
</svg>
