<svg width="35" height="35" viewBox="0 0 35 35" fill="none" xmlns="http://www.w3.org/2000/svg">
<rect x="0.15" y="0.15" width="34.7" height="34.7" rx="6.85" stroke="#989898" stroke-width="0.3"/>
<path d="M23.2317 14.3902L20.4385 11.5977C20.3457 11.5048 20.2354 11.4311 20.1141 11.3808C19.9928 11.3306 19.8627 11.3047 19.7314 11.3047C19.6 11.3047 19.47 11.3306 19.3486 11.3808C19.2273 11.4311 19.117 11.5048 19.0242 11.5977L11.3173 19.3045C11.224 19.3971 11.1501 19.5072 11.0998 19.6285C11.0495 19.7499 11.0238 19.88 11.0242 20.0114V22.8045C11.0242 23.0698 11.1295 23.3241 11.3171 23.5116C11.5046 23.6992 11.759 23.8045 12.0242 23.8045H22.5242C22.6568 23.8045 22.784 23.7519 22.8777 23.6581C22.9715 23.5643 23.0242 23.4371 23.0242 23.3045C23.0242 23.1719 22.9715 23.0448 22.8777 22.951C22.784 22.8572 22.6568 22.8045 22.5242 22.8045H16.2317L23.2317 15.8045C23.3246 15.7117 23.3982 15.6014 23.4485 15.4801C23.4988 15.3587 23.5246 15.2287 23.5246 15.0973C23.5246 14.966 23.4988 14.836 23.4485 14.7146C23.3982 14.5933 23.3246 14.483 23.2317 14.3902ZM14.8173 22.8045H12.0242V20.0114L17.5242 14.5114L20.3173 17.3045L14.8173 22.8045ZM21.0242 16.5977L18.2317 13.8045L19.7317 12.3045L22.5242 15.0977L21.0242 16.5977Z" fill="black"/>
</svg>
