<svg width="35" height="35" viewBox="0 0 35 35" fill="none" xmlns="http://www.w3.org/2000/svg">
<rect x="0.15" y="0.15" width="34.7" height="34.7" rx="6.85" stroke="#989898" stroke-width="0.3"/>
<path d="M22.3026 13.0078H11.3026C11.17 13.0078 11.0428 13.0605 10.9491 13.1543C10.8553 13.248 10.8026 13.3752 10.8026 13.5078C10.8026 13.6404 10.8553 13.7676 10.9491 13.8614C11.0428 13.9551 11.17 14.0078 11.3026 14.0078H11.8026V23.0078C11.8026 23.273 11.908 23.5274 12.0955 23.7149C12.283 23.9025 12.5374 24.0078 12.8026 24.0078H20.8026C21.0678 24.0078 21.3222 23.9025 21.5097 23.7149C21.6973 23.5274 21.8026 23.273 21.8026 23.0078V14.0078H22.3026C22.4352 14.0078 22.5624 13.9551 22.6562 13.8614C22.7499 13.7676 22.8026 13.6404 22.8026 13.5078C22.8026 13.3752 22.7499 13.248 22.6562 13.1543C22.5624 13.0605 22.4352 13.0078 22.3026 13.0078ZM20.8026 23.0078H12.8026V14.0078H20.8026V23.0078ZM13.8026 11.5078C13.8026 11.3752 13.8553 11.248 13.9491 11.1543C14.0428 11.0605 14.17 11.0078 14.3026 11.0078H19.3026C19.4352 11.0078 19.5624 11.0605 19.6562 11.1543C19.7499 11.248 19.8026 11.3752 19.8026 11.5078C19.8026 11.6404 19.7499 11.7676 19.6562 11.8614C19.5624 11.9551 19.4352 12.0078 19.3026 12.0078H14.3026C14.17 12.0078 14.0428 11.9551 13.9491 11.8614C13.8553 11.7676 13.8026 11.6404 13.8026 11.5078Z" fill="black"/>
</svg>
